<svg height="747.07702" viewBox="0 0 744.84799 747.07702" width="744.84799" xmlns="http://www.w3.org/2000/svg"><g transform="translate(-227.576 -76.46149)"><path d="m299.205 705.80851-6.56-25.872a335.96693 335.96693 0 0 0 -35.643-12.788l-.828 12.024-3.358-13.247c-15.021-4.29394-25.24-6.183-25.24-6.183s13.8 52.489 42.754 92.617l33.734 5.926-26.207 3.779a135.92592 135.92592 0 0 0 11.719 12.422c42.115 39.092 89.024 57.028 104.773 40.06s-5.625-62.412-47.74-101.5c-13.056-12.119-29.457-21.844-45.875-29.5z" fill="#f2f2f2"/><path d="m361.591 677.70647 7.758-25.538a335.93951 335.93951 0 0 0 -23.9-29.371l-6.924 9.865 3.972-13.076c-10.641-11.436-18.412-18.335-18.412-18.335s-15.315 52.067-11.275 101.384l25.815 22.51-24.392-10.312a135.91879 135.91879 0 0 0 3.614 16.694c15.846 55.234 46.731 94.835 68.983 88.451s27.446-56.335 11.6-111.569c-4.912-17.123-13.926-33.926-24.023-48.965z" fill="#f2f2f2"/><path d="m747.327 253.4445h-4.092v-112.1a64.883 64.883 0 0 0 -64.883-64.883h-237.507a64.883 64.883 0 0 0 -64.883 64.883v615a64.883 64.883 0 0 0 64.883 64.883h237.507a64.883 64.883 0 0 0 64.882-64.883v-423.105h4.092z" fill="#e6e6e6"/><path d="m680.97 93.3355h-31a23.02 23.02 0 0 1 -21.316 31.714h-136.065a23.02 23.02 0 0 1 -21.314-31.714h-28.956a48.454 48.454 0 0 0 -48.454 48.454v614.107a48.454 48.454 0 0 0 48.454 48.454h238.651a48.454 48.454 0 0 0 48.454-48.454v-614.108a48.454 48.454 0 0 0 -48.454-48.453z" fill="#fff"/><path d="m531.234 337.96451a24.437 24.437 0 0 1 12.23-21.174 24.45 24.45 0 1 0 0 42.345 24.43391 24.43391 0 0 1 -12.23-21.171z" fill="#ccc"/><path d="m561.971 337.96451a24.43594 24.43594 0 0 1 12.23-21.174 24.45 24.45 0 1 0 0 42.345 24.43391 24.43391 0 0 1 -12.23-21.171z" fill="#ccc"/></g><circle cx="364.43401" cy="261.50202" fill="#6c63ff" r="24.45"/><path d="m632.872 414.3305h-142.5a5.123 5.123 0 0 1 -5.117-5.117v-142.5a5.123 5.123 0 0 1 5.117-5.117h142.5a5.123 5.123 0 0 1 5.117 5.117v142.5a5.123 5.123 0 0 1 -5.117 5.117zm-142.5-150.686a3.073 3.073 0 0 0 -3.07 3.07v142.5a3.073 3.073 0 0 0 3.07 3.07h142.5a3.073 3.073 0 0 0 3.07-3.07v-142.5a3.073 3.073 0 0 0 -3.07-3.07z" fill="#ccc" transform="translate(-227.576 -76.46149)"/><path d="m218.56201 447.10197h218.552v2.047h-218.552z" fill="#ccc"/><circle cx="225.46401" cy="427.41999" fill="#6c63ff" r="6.902"/><path d="m218.56201 516.11803h218.552v2.047h-218.552z" fill="#ccc"/><circle cx="225.46401" cy="496.43702" fill="#6c63ff" r="6.902"/><path d="m660.69043 671.17188h-69.06836a4.50493 4.50493 0 0 1 -4.5-4.5v-24.208a4.50492 4.50492 0 0 1 4.5-4.5h69.06836a4.50491 4.50491 0 0 1 4.5 4.5v24.208a4.50492 4.50492 0 0 1 -4.5 4.5z" fill="#6c63ff" transform="translate(-227.576 -76.46149)"/><circle cx="247.97799" cy="427.41999" fill="#6c63ff" r="6.902"/><circle cx="270.492" cy="427.41999" fill="#6c63ff" r="6.902"/><circle cx="247.97799" cy="496.43702" fill="#6c63ff" r="6.902"/><circle cx="270.492" cy="496.43702" fill="#6c63ff" r="6.902"/><path d="m969.642 823.53851h-717.986c-1.537 0-2.782-.546-2.782-1.218s1.245-1.219 2.782-1.219h717.986c1.536 0 2.782.546 2.782 1.219s-1.246 1.218-2.782 1.218z" fill="#3f3d56" transform="translate(-227.576 -76.46149)"/><path d="m792.25256 565.92292a10.09371 10.09371 0 0 1 1.41075.78731l44.8523-19.14319 1.60093-11.81526 17.92157-.10956-1.05873 27.0982-59.19987 15.65584a10.60791 10.60791 0 0 1 -.44749 1.20835 10.2346 10.2346 0 1 1 -5.07946-13.68169z" fill="#ffb8b8" transform="translate(-227.576 -76.46149)"/><path d="m636.98 735.021h-12.26l-5.832-47.288 18.094.001z" fill="#ffb8b8"/><path d="m615.96281 731.51778h23.64387a0 0 0 0 1 0 0v14.88687a0 0 0 0 1 0 0h-38.53068a0 0 0 0 1 0 0 14.88686 14.88686 0 0 1 14.88681-14.88687z" fill="#2f2e41"/><path d="m684.66 731.557-12.201 1.202-10.441-46.488 18.007-1.774z" fill="#ffb8b8"/><path d="m891.68576 806.12757h23.64387a0 0 0 0 1 0 0v14.88687a0 0 0 0 1 0 0h-38.53073a0 0 0 0 1 0 0 14.88686 14.88686 0 0 1 14.88686-14.88687z" fill="#2f2e41" transform="matrix(.99518423 -.09802218 .09802218 .99518423 -303.00873 15.2906)"/><circle cx="640.3925" cy="384.57375" fill="#ffb8b8" r="24.56103"/><path d="m849.55636 801.91945a4.47086 4.47086 0 0 1 -4.415-3.69726c-6.34571-35.22559-27.08789-150.40528-27.584-153.59571a1.42684 1.42684 0 0 1 -.01562-.22168v-8.58789a1.489 1.489 0 0 1 .27929-.87207l2.74024-3.83789a1.47845 1.47845 0 0 1 1.14355-.625c15.62207-.73242 66.78418-2.8789 69.25586.209 2.48242 3.10351 1.60547 12.50683 1.4043 14.36035l.00977.19336 22.98535 146.99512a4.51238 4.51238 0 0 1 -3.71485 5.13476l-14.35644 2.36524a4.52127 4.52127 0 0 1 -5.02539-3.09278c-4.44043-14.18847-19.3291-61.918-24.48926-80.38672a.49922.49922 0 0 0 -.98047.13868c.25781 17.60546.88086 62.52343 1.0957 78.0371l.02344 1.6709a4.51811 4.51811 0 0 1 -4.09277 4.53614l-13.84375 1.25781c-.14066.01268-.28131.01854-.41995.01854z" fill="#2f2e41" transform="translate(-227.576 -76.46149)"/><path d="m852.38089 495.2538c-4.28634 2.548-6.85116 7.23043-8.32276 11.9951a113.681 113.681 0 0 0 -4.88444 27.15943l-1.55553 27.60021-19.25508 73.1699c16.68871 14.1207 26.31542 10.91153 48.78049-.63879s25.03222 3.85117 25.03222 3.85117l4.49236-62.25839 6.41837-68.03232a30.16418 30.16418 0 0 0 -4.86143-4.67415 49.65848 49.65848 0 0 0 -42.44229-8.99538z" fill="#6c63ff" transform="translate(-227.576 -76.46149)"/><path d="m846.12661 580.70047a10.52561 10.52561 0 0 1 1.50061.70389l44.34832-22.1972.736-12.02551 18.2938-1.26127.98041 27.4126-59.26585 19.59937a10.4958 10.4958 0 1 1 -6.59329-12.23188z" fill="#ffb8b8" transform="translate(-227.576 -76.46149)"/><path d="m902.76552 508.41151c10.91151 3.85117 12.83354 45.57369 12.83354 45.57369-12.8367-7.06036-28.24139 4.49318-28.24139 4.49318s-3.20916-10.91154-7.06034-25.03223a24.52987 24.52987 0 0 1 5.13436-23.10625s6.42231-5.7819 17.33383-1.92839z" fill="#6c63ff" transform="translate(-227.576 -76.46149)"/><path d="m889.99122 467.53052c-3.06-2.44837-7.23517 2.00173-7.23517 2.00173l-2.4484-22.03349s-15.30095 1.8329-25.0935-.61161-11.32255 8.87513-11.32255 8.87513a78.57978 78.57978 0 0 1 -.30582-13.77092c.61158-5.50838 8.56838-11.01675 22.6451-14.68932s21.42092 12.24096 21.42092 12.24096c9.79362 4.89577 5.39941 30.43591 2.33942 27.98752z" fill="#2f2e41" transform="translate(-227.576 -76.46149)"/></svg>